<svg  viewBox="0 0 9 12">
<path d="M4.58139 0.55957C4.26498 0.55957 4.04819 0.782227 4.04819 1.09277V8.24121L4.0892 9.43652L2.50131 7.68457L1.24155 6.43652C1.1478 6.34277 1.00717 6.29004 0.860687 6.29004C0.567719 6.29004 0.345062 6.5127 0.345062 6.81152C0.345062 6.95215 0.397797 7.08105 0.514984 7.19824L4.18295 10.8721C4.29428 10.9893 4.43491 11.0537 4.58139 11.0537C4.72787 11.0537 4.8685 10.9893 4.97983 10.8721L8.6478 7.19824C8.76498 7.08105 8.81772 6.95215 8.81772 6.81152C8.81772 6.5127 8.59506 6.29004 8.30209 6.29004C8.15561 6.29004 8.01498 6.34277 7.92123 6.43652L6.65561 7.68457L5.07358 9.43066L5.11459 8.24121V1.09277C5.11459 0.782227 4.89194 0.55957 4.58139 0.55957Z" fill="black"/>
</svg>
